<mxfile host="app.diagrams.net" modified="2021-12-26T02:55:26.593Z" agent="5.0 (Macintosh; Intel Mac OS X 10_15_7) AppleWebKit/537.36 (KHTML, like Gecko) Chrome/96.0.4664.110 Safari/537.36" etag="AYo0oZCOAtxHerg1arGS" version="16.0.0" type="github">
  <diagram id="Mab-etOisHruwHvsCN_b" name="Page-1">
    <mxGraphModel dx="1504" dy="883" grid="1" gridSize="10" guides="1" tooltips="1" connect="1" arrows="1" fold="1" page="1" pageScale="1" pageWidth="827" pageHeight="1169" math="0" shadow="0">
      <root>
        <mxCell id="0" />
        <mxCell id="1" parent="0" />
        <mxCell id="tq078fnUQTbsJ2Q1i4QV-1" value="AWS Cloud" style="points=[[0,0],[0.25,0],[0.5,0],[0.75,0],[1,0],[1,0.25],[1,0.5],[1,0.75],[1,1],[0.75,1],[0.5,1],[0.25,1],[0,1],[0,0.75],[0,0.5],[0,0.25]];outlineConnect=0;gradientColor=none;html=1;whiteSpace=wrap;fontSize=12;fontStyle=0;container=1;pointerEvents=0;collapsible=0;recursiveResize=0;shape=mxgraph.aws4.group;grIcon=mxgraph.aws4.group_aws_cloud;strokeColor=#232F3E;fillColor=default;verticalAlign=top;align=left;spacingLeft=30;fontColor=#232F3E;dashed=0;strokeWidth=2;" vertex="1" parent="1">
          <mxGeometry x="120" y="320" width="1050" height="640" as="geometry" />
        </mxCell>
        <mxCell id="tq078fnUQTbsJ2Q1i4QV-3" value="VPC" style="points=[[0,0],[0.25,0],[0.5,0],[0.75,0],[1,0],[1,0.25],[1,0.5],[1,0.75],[1,1],[0.75,1],[0.5,1],[0.25,1],[0,1],[0,0.75],[0,0.5],[0,0.25]];outlineConnect=0;gradientColor=none;html=1;whiteSpace=wrap;fontSize=12;fontStyle=0;container=1;pointerEvents=0;collapsible=0;recursiveResize=0;shape=mxgraph.aws4.group;grIcon=mxgraph.aws4.group_vpc;strokeColor=#248814;fillColor=none;verticalAlign=top;align=left;spacingLeft=30;fontColor=#AAB7B8;dashed=0;strokeWidth=2;" vertex="1" parent="tq078fnUQTbsJ2Q1i4QV-1">
          <mxGeometry x="40" y="40" width="960" height="560" as="geometry" />
        </mxCell>
        <mxCell id="tq078fnUQTbsJ2Q1i4QV-18" value="AZ - A" style="fillColor=#E6E6E6;strokeColor=#147EBA;dashed=1;verticalAlign=top;fontStyle=0;fontColor=#147EBA;strokeWidth=2;fontSize=18;" vertex="1" parent="tq078fnUQTbsJ2Q1i4QV-3">
          <mxGeometry x="79" y="120" width="320" height="400" as="geometry" />
        </mxCell>
        <mxCell id="tq078fnUQTbsJ2Q1i4QV-22" style="edgeStyle=orthogonalEdgeStyle;rounded=1;orthogonalLoop=1;jettySize=auto;html=1;strokeWidth=2;exitX=0.5;exitY=0;exitDx=0;exitDy=0;startArrow=classic;startFill=1;" edge="1" parent="tq078fnUQTbsJ2Q1i4QV-3" source="tq078fnUQTbsJ2Q1i4QV-6" target="tq078fnUQTbsJ2Q1i4QV-15">
          <mxGeometry relative="1" as="geometry">
            <Array as="points">
              <mxPoint x="239" y="80" />
              <mxPoint x="479" y="80" />
            </Array>
          </mxGeometry>
        </mxCell>
        <mxCell id="tq078fnUQTbsJ2Q1i4QV-6" value="Public subnet" style="points=[[0,0],[0.25,0],[0.5,0],[0.75,0],[1,0],[1,0.25],[1,0.5],[1,0.75],[1,1],[0.75,1],[0.5,1],[0.25,1],[0,1],[0,0.75],[0,0.5],[0,0.25]];outlineConnect=0;html=1;whiteSpace=wrap;fontSize=12;fontStyle=0;container=1;pointerEvents=0;collapsible=0;recursiveResize=0;shape=mxgraph.aws4.group;grIcon=mxgraph.aws4.group_security_group;grStroke=0;strokeColor=#4D4D4D;fillColor=#d5e8d4;verticalAlign=top;align=left;spacingLeft=30;dashed=0;strokeWidth=1;" vertex="1" parent="tq078fnUQTbsJ2Q1i4QV-3">
          <mxGeometry x="119" y="160" width="240" height="82" as="geometry" />
        </mxCell>
        <mxCell id="tq078fnUQTbsJ2Q1i4QV-12" value="" style="sketch=0;outlineConnect=0;fontColor=#232F3E;gradientColor=none;fillColor=#4D27AA;strokeColor=none;dashed=0;verticalLabelPosition=bottom;verticalAlign=top;align=center;html=1;fontSize=12;fontStyle=0;aspect=fixed;pointerEvents=1;shape=mxgraph.aws4.application_load_balancer;" vertex="1" parent="tq078fnUQTbsJ2Q1i4QV-6">
          <mxGeometry x="160" y="21" width="40" height="40" as="geometry" />
        </mxCell>
        <mxCell id="tq078fnUQTbsJ2Q1i4QV-14" value="" style="sketch=0;outlineConnect=0;fontColor=#232F3E;gradientColor=none;fillColor=#4D27AA;strokeColor=none;dashed=0;verticalLabelPosition=bottom;verticalAlign=top;align=center;html=1;fontSize=12;fontStyle=0;aspect=fixed;pointerEvents=1;shape=mxgraph.aws4.nat_gateway;" vertex="1" parent="tq078fnUQTbsJ2Q1i4QV-6">
          <mxGeometry x="80" y="21" width="40" height="40" as="geometry" />
        </mxCell>
        <mxCell id="tq078fnUQTbsJ2Q1i4QV-19" style="edgeStyle=orthogonalEdgeStyle;rounded=1;orthogonalLoop=1;jettySize=auto;html=1;strokeWidth=2;" edge="1" parent="tq078fnUQTbsJ2Q1i4QV-3" source="tq078fnUQTbsJ2Q1i4QV-7" target="tq078fnUQTbsJ2Q1i4QV-14">
          <mxGeometry relative="1" as="geometry" />
        </mxCell>
        <mxCell id="tq078fnUQTbsJ2Q1i4QV-7" value="Private subnet" style="points=[[0,0],[0.25,0],[0.5,0],[0.75,0],[1,0],[1,0.25],[1,0.5],[1,0.75],[1,1],[0.75,1],[0.5,1],[0.25,1],[0,1],[0,0.75],[0,0.5],[0,0.25]];outlineConnect=0;gradientColor=none;html=1;whiteSpace=wrap;fontSize=12;fontStyle=0;container=1;pointerEvents=0;collapsible=0;recursiveResize=0;shape=mxgraph.aws4.group;grIcon=mxgraph.aws4.group_security_group;grStroke=0;strokeColor=#147EBA;fillColor=#E6F2F8;verticalAlign=top;align=left;spacingLeft=30;fontColor=#147EBA;dashed=0;" vertex="1" parent="tq078fnUQTbsJ2Q1i4QV-3">
          <mxGeometry x="119" y="280" width="240" height="80" as="geometry" />
        </mxCell>
        <mxCell id="tq078fnUQTbsJ2Q1i4QV-16" value="" style="sketch=0;points=[[0,0,0],[0.25,0,0],[0.5,0,0],[0.75,0,0],[1,0,0],[0,1,0],[0.25,1,0],[0.5,1,0],[0.75,1,0],[1,1,0],[0,0.25,0],[0,0.5,0],[0,0.75,0],[1,0.25,0],[1,0.5,0],[1,0.75,0]];outlineConnect=0;fontColor=#232F3E;gradientColor=#F78E04;gradientDirection=north;fillColor=#D05C17;strokeColor=#ffffff;dashed=0;verticalLabelPosition=bottom;verticalAlign=top;align=center;html=1;fontSize=12;fontStyle=0;aspect=fixed;shape=mxgraph.aws4.resourceIcon;resIcon=mxgraph.aws4.eks;" vertex="1" parent="tq078fnUQTbsJ2Q1i4QV-7">
          <mxGeometry x="160" y="28" width="40" height="40" as="geometry" />
        </mxCell>
        <mxCell id="tq078fnUQTbsJ2Q1i4QV-9" value="Sensitive subnet" style="points=[[0,0],[0.25,0],[0.5,0],[0.75,0],[1,0],[1,0.25],[1,0.5],[1,0.75],[1,1],[0.75,1],[0.5,1],[0.25,1],[0,1],[0,0.75],[0,0.5],[0,0.25]];outlineConnect=0;html=1;whiteSpace=wrap;fontSize=12;fontStyle=0;container=1;pointerEvents=0;collapsible=0;recursiveResize=0;shape=mxgraph.aws4.group;grIcon=mxgraph.aws4.group_security_group;grStroke=0;strokeColor=#9673a6;fillColor=#e1d5e7;verticalAlign=top;align=left;spacingLeft=30;dashed=0;" vertex="1" parent="tq078fnUQTbsJ2Q1i4QV-3">
          <mxGeometry x="119" y="400" width="240" height="80" as="geometry" />
        </mxCell>
        <mxCell id="tq078fnUQTbsJ2Q1i4QV-17" value="" style="sketch=0;outlineConnect=0;fontColor=#232F3E;gradientColor=none;fillColor=#2E27AD;strokeColor=none;dashed=0;verticalLabelPosition=bottom;verticalAlign=top;align=center;html=1;fontSize=12;fontStyle=0;aspect=fixed;pointerEvents=1;shape=mxgraph.aws4.rds_instance;" vertex="1" parent="tq078fnUQTbsJ2Q1i4QV-9">
          <mxGeometry x="160" y="30" width="40" height="40" as="geometry" />
        </mxCell>
        <mxCell id="tq078fnUQTbsJ2Q1i4QV-34" style="edgeStyle=orthogonalEdgeStyle;rounded=0;orthogonalLoop=1;jettySize=auto;html=1;entryX=0.875;entryY=0.275;entryDx=0;entryDy=0;entryPerimeter=0;strokeWidth=2;endArrow=none;endFill=0;fillColor=#0050ef;strokeColor=#001DBC;" edge="1" parent="tq078fnUQTbsJ2Q1i4QV-3" source="tq078fnUQTbsJ2Q1i4QV-13" target="tq078fnUQTbsJ2Q1i4QV-18">
          <mxGeometry relative="1" as="geometry" />
        </mxCell>
        <mxCell id="tq078fnUQTbsJ2Q1i4QV-35" style="edgeStyle=orthogonalEdgeStyle;rounded=0;orthogonalLoop=1;jettySize=auto;html=1;entryX=0.875;entryY=0.5;entryDx=0;entryDy=0;entryPerimeter=0;endArrow=none;endFill=0;strokeWidth=2;strokeColor=#001DBC;fillColor=#0050ef;" edge="1" parent="tq078fnUQTbsJ2Q1i4QV-3" source="tq078fnUQTbsJ2Q1i4QV-13" target="tq078fnUQTbsJ2Q1i4QV-18">
          <mxGeometry relative="1" as="geometry" />
        </mxCell>
        <mxCell id="tq078fnUQTbsJ2Q1i4QV-36" style="edgeStyle=orthogonalEdgeStyle;rounded=0;orthogonalLoop=1;jettySize=auto;html=1;entryX=0.906;entryY=0.75;entryDx=0;entryDy=0;entryPerimeter=0;endArrow=none;endFill=0;strokeWidth=2;strokeColor=#001DBC;fillColor=#0050ef;" edge="1" parent="tq078fnUQTbsJ2Q1i4QV-3" source="tq078fnUQTbsJ2Q1i4QV-13" target="tq078fnUQTbsJ2Q1i4QV-18">
          <mxGeometry relative="1" as="geometry" />
        </mxCell>
        <mxCell id="tq078fnUQTbsJ2Q1i4QV-37" style="edgeStyle=orthogonalEdgeStyle;rounded=0;orthogonalLoop=1;jettySize=auto;html=1;entryX=0.125;entryY=0.25;entryDx=0;entryDy=0;entryPerimeter=0;endArrow=none;endFill=0;strokeWidth=2;strokeColor=#001DBC;fillColor=#0050ef;" edge="1" parent="tq078fnUQTbsJ2Q1i4QV-3" source="tq078fnUQTbsJ2Q1i4QV-13" target="tq078fnUQTbsJ2Q1i4QV-23">
          <mxGeometry relative="1" as="geometry" />
        </mxCell>
        <mxCell id="tq078fnUQTbsJ2Q1i4QV-38" style="edgeStyle=orthogonalEdgeStyle;rounded=0;orthogonalLoop=1;jettySize=auto;html=1;entryX=0.125;entryY=0.5;entryDx=0;entryDy=0;entryPerimeter=0;endArrow=none;endFill=0;strokeWidth=2;strokeColor=#001DBC;fillColor=#0050ef;" edge="1" parent="tq078fnUQTbsJ2Q1i4QV-3" source="tq078fnUQTbsJ2Q1i4QV-13" target="tq078fnUQTbsJ2Q1i4QV-23">
          <mxGeometry relative="1" as="geometry" />
        </mxCell>
        <mxCell id="tq078fnUQTbsJ2Q1i4QV-39" style="edgeStyle=orthogonalEdgeStyle;rounded=0;orthogonalLoop=1;jettySize=auto;html=1;entryX=0.125;entryY=0.75;entryDx=0;entryDy=0;entryPerimeter=0;endArrow=none;endFill=0;strokeWidth=2;strokeColor=#001DBC;fillColor=#0050ef;" edge="1" parent="tq078fnUQTbsJ2Q1i4QV-3" source="tq078fnUQTbsJ2Q1i4QV-13" target="tq078fnUQTbsJ2Q1i4QV-23">
          <mxGeometry relative="1" as="geometry" />
        </mxCell>
        <mxCell id="tq078fnUQTbsJ2Q1i4QV-13" value="" style="sketch=0;outlineConnect=0;fontColor=#232F3E;gradientColor=none;fillColor=#4D27AA;strokeColor=none;dashed=0;verticalLabelPosition=bottom;verticalAlign=top;align=center;html=1;fontSize=12;fontStyle=0;aspect=fixed;pointerEvents=1;shape=mxgraph.aws4.route_table;" vertex="1" parent="tq078fnUQTbsJ2Q1i4QV-3">
          <mxGeometry x="439" y="282" width="78" height="76" as="geometry" />
        </mxCell>
        <mxCell id="tq078fnUQTbsJ2Q1i4QV-15" value="" style="sketch=0;outlineConnect=0;fontColor=#232F3E;gradientColor=none;fillColor=#4D27AA;strokeColor=none;dashed=0;verticalLabelPosition=bottom;verticalAlign=top;align=center;html=1;fontSize=12;fontStyle=0;aspect=fixed;pointerEvents=1;shape=mxgraph.aws4.internet_gateway;" vertex="1" parent="tq078fnUQTbsJ2Q1i4QV-3">
          <mxGeometry x="459" width="40" height="40" as="geometry" />
        </mxCell>
        <mxCell id="tq078fnUQTbsJ2Q1i4QV-20" style="edgeStyle=orthogonalEdgeStyle;rounded=1;orthogonalLoop=1;jettySize=auto;html=1;entryX=0.5;entryY=0;entryDx=0;entryDy=0;entryPerimeter=0;strokeWidth=2;" edge="1" parent="tq078fnUQTbsJ2Q1i4QV-3" source="tq078fnUQTbsJ2Q1i4QV-12" target="tq078fnUQTbsJ2Q1i4QV-16">
          <mxGeometry relative="1" as="geometry" />
        </mxCell>
        <mxCell id="tq078fnUQTbsJ2Q1i4QV-21" style="edgeStyle=orthogonalEdgeStyle;rounded=1;orthogonalLoop=1;jettySize=auto;html=1;strokeWidth=2;" edge="1" parent="tq078fnUQTbsJ2Q1i4QV-3" source="tq078fnUQTbsJ2Q1i4QV-16" target="tq078fnUQTbsJ2Q1i4QV-17">
          <mxGeometry relative="1" as="geometry" />
        </mxCell>
        <mxCell id="tq078fnUQTbsJ2Q1i4QV-23" value="AZ - B" style="fillColor=#E6E6E6;strokeColor=#147EBA;dashed=1;verticalAlign=top;fontStyle=0;fontColor=#147EBA;strokeWidth=2;fontSize=18;" vertex="1" parent="tq078fnUQTbsJ2Q1i4QV-3">
          <mxGeometry x="559" y="120" width="320" height="400" as="geometry" />
        </mxCell>
        <mxCell id="tq078fnUQTbsJ2Q1i4QV-40" style="edgeStyle=orthogonalEdgeStyle;rounded=1;orthogonalLoop=1;jettySize=auto;html=1;fontSize=18;endArrow=classic;endFill=1;strokeWidth=2;startArrow=classic;startFill=1;" edge="1" parent="tq078fnUQTbsJ2Q1i4QV-3" source="tq078fnUQTbsJ2Q1i4QV-24" target="tq078fnUQTbsJ2Q1i4QV-15">
          <mxGeometry relative="1" as="geometry">
            <Array as="points">
              <mxPoint x="719" y="80" />
              <mxPoint x="479" y="80" />
            </Array>
          </mxGeometry>
        </mxCell>
        <mxCell id="tq078fnUQTbsJ2Q1i4QV-24" value="Public subnet" style="points=[[0,0],[0.25,0],[0.5,0],[0.75,0],[1,0],[1,0.25],[1,0.5],[1,0.75],[1,1],[0.75,1],[0.5,1],[0.25,1],[0,1],[0,0.75],[0,0.5],[0,0.25]];outlineConnect=0;html=1;whiteSpace=wrap;fontSize=12;fontStyle=0;container=1;pointerEvents=0;collapsible=0;recursiveResize=0;shape=mxgraph.aws4.group;grIcon=mxgraph.aws4.group_security_group;grStroke=0;strokeColor=#82b366;fillColor=#d5e8d4;verticalAlign=top;align=left;spacingLeft=30;dashed=0;" vertex="1" parent="tq078fnUQTbsJ2Q1i4QV-3">
          <mxGeometry x="599" y="160" width="240" height="82" as="geometry" />
        </mxCell>
        <mxCell id="tq078fnUQTbsJ2Q1i4QV-25" value="" style="sketch=0;outlineConnect=0;fontColor=#232F3E;gradientColor=none;fillColor=#4D27AA;strokeColor=none;dashed=0;verticalLabelPosition=bottom;verticalAlign=top;align=center;html=1;fontSize=12;fontStyle=0;aspect=fixed;pointerEvents=1;shape=mxgraph.aws4.application_load_balancer;" vertex="1" parent="tq078fnUQTbsJ2Q1i4QV-24">
          <mxGeometry x="160" y="21" width="40" height="40" as="geometry" />
        </mxCell>
        <mxCell id="tq078fnUQTbsJ2Q1i4QV-26" value="" style="sketch=0;outlineConnect=0;fontColor=#232F3E;gradientColor=none;fillColor=#4D27AA;strokeColor=none;dashed=0;verticalLabelPosition=bottom;verticalAlign=top;align=center;html=1;fontSize=12;fontStyle=0;aspect=fixed;pointerEvents=1;shape=mxgraph.aws4.nat_gateway;" vertex="1" parent="tq078fnUQTbsJ2Q1i4QV-24">
          <mxGeometry x="80" y="21" width="40" height="40" as="geometry" />
        </mxCell>
        <mxCell id="tq078fnUQTbsJ2Q1i4QV-27" style="edgeStyle=orthogonalEdgeStyle;rounded=1;orthogonalLoop=1;jettySize=auto;html=1;strokeWidth=2;" edge="1" parent="tq078fnUQTbsJ2Q1i4QV-3" source="tq078fnUQTbsJ2Q1i4QV-28" target="tq078fnUQTbsJ2Q1i4QV-26">
          <mxGeometry relative="1" as="geometry" />
        </mxCell>
        <mxCell id="tq078fnUQTbsJ2Q1i4QV-28" value="Private subnet" style="points=[[0,0],[0.25,0],[0.5,0],[0.75,0],[1,0],[1,0.25],[1,0.5],[1,0.75],[1,1],[0.75,1],[0.5,1],[0.25,1],[0,1],[0,0.75],[0,0.5],[0,0.25]];outlineConnect=0;gradientColor=none;html=1;whiteSpace=wrap;fontSize=12;fontStyle=0;container=1;pointerEvents=0;collapsible=0;recursiveResize=0;shape=mxgraph.aws4.group;grIcon=mxgraph.aws4.group_security_group;grStroke=0;strokeColor=#000000;fillColor=#E6F2F8;verticalAlign=top;align=left;spacingLeft=30;fontColor=#147EBA;dashed=0;" vertex="1" parent="tq078fnUQTbsJ2Q1i4QV-3">
          <mxGeometry x="599" y="280" width="240" height="80" as="geometry" />
        </mxCell>
        <mxCell id="tq078fnUQTbsJ2Q1i4QV-29" value="" style="sketch=0;points=[[0,0,0],[0.25,0,0],[0.5,0,0],[0.75,0,0],[1,0,0],[0,1,0],[0.25,1,0],[0.5,1,0],[0.75,1,0],[1,1,0],[0,0.25,0],[0,0.5,0],[0,0.75,0],[1,0.25,0],[1,0.5,0],[1,0.75,0]];outlineConnect=0;fontColor=#232F3E;gradientColor=#F78E04;gradientDirection=north;fillColor=#D05C17;strokeColor=#ffffff;dashed=0;verticalLabelPosition=bottom;verticalAlign=top;align=center;html=1;fontSize=12;fontStyle=0;aspect=fixed;shape=mxgraph.aws4.resourceIcon;resIcon=mxgraph.aws4.eks;" vertex="1" parent="tq078fnUQTbsJ2Q1i4QV-28">
          <mxGeometry x="160" y="28" width="40" height="40" as="geometry" />
        </mxCell>
        <mxCell id="tq078fnUQTbsJ2Q1i4QV-30" value="Sensitive&amp;nbsp;subnet" style="points=[[0,0],[0.25,0],[0.5,0],[0.75,0],[1,0],[1,0.25],[1,0.5],[1,0.75],[1,1],[0.75,1],[0.5,1],[0.25,1],[0,1],[0,0.75],[0,0.5],[0,0.25]];outlineConnect=0;html=1;whiteSpace=wrap;fontSize=12;fontStyle=0;container=1;pointerEvents=0;collapsible=0;recursiveResize=0;shape=mxgraph.aws4.group;grIcon=mxgraph.aws4.group_security_group;grStroke=0;strokeColor=#9673a6;fillColor=#e1d5e7;verticalAlign=top;align=left;spacingLeft=30;dashed=0;" vertex="1" parent="tq078fnUQTbsJ2Q1i4QV-3">
          <mxGeometry x="599" y="400" width="240" height="80" as="geometry" />
        </mxCell>
        <mxCell id="tq078fnUQTbsJ2Q1i4QV-31" value="" style="sketch=0;outlineConnect=0;fontColor=#232F3E;gradientColor=none;fillColor=#2E27AD;strokeColor=none;dashed=0;verticalLabelPosition=bottom;verticalAlign=top;align=center;html=1;fontSize=12;fontStyle=0;aspect=fixed;pointerEvents=1;shape=mxgraph.aws4.rds_instance;" vertex="1" parent="tq078fnUQTbsJ2Q1i4QV-30">
          <mxGeometry x="160" y="30" width="40" height="40" as="geometry" />
        </mxCell>
        <mxCell id="tq078fnUQTbsJ2Q1i4QV-32" style="edgeStyle=orthogonalEdgeStyle;rounded=1;orthogonalLoop=1;jettySize=auto;html=1;entryX=0.5;entryY=0;entryDx=0;entryDy=0;entryPerimeter=0;strokeWidth=2;" edge="1" parent="tq078fnUQTbsJ2Q1i4QV-3" source="tq078fnUQTbsJ2Q1i4QV-25" target="tq078fnUQTbsJ2Q1i4QV-29">
          <mxGeometry relative="1" as="geometry" />
        </mxCell>
        <mxCell id="tq078fnUQTbsJ2Q1i4QV-33" style="edgeStyle=orthogonalEdgeStyle;rounded=1;orthogonalLoop=1;jettySize=auto;html=1;strokeWidth=2;" edge="1" parent="tq078fnUQTbsJ2Q1i4QV-3" source="tq078fnUQTbsJ2Q1i4QV-29" target="tq078fnUQTbsJ2Q1i4QV-31">
          <mxGeometry relative="1" as="geometry" />
        </mxCell>
      </root>
    </mxGraphModel>
  </diagram>
</mxfile>
